<svg width="140" height="37" viewBox="0 0 140 37" fill="none" xmlns="http://www.w3.org/2000/svg">
<path d="M103 2.65048C103 1.18743 104.225 0 105.735 0H137.265C138.776 0 140 1.18743 140 2.65048V34.35C140 35.8135 138.776 37 137.265 37H105.735C104.225 37 103 35.8135 103 34.3505V2.65V2.65048Z" fill="#006699"/>
<path d="M0 31H15.3332V25.9135H5.54992V6.50953H0V31ZM23.0963 31V14.1315H17.5469V31H23.0963ZM20.3221 11.8288C22.2569 11.8288 23.4615 10.5334 23.4615 8.91365C23.4256 7.25865 22.2569 6 20.3589 6C18.4605 6 17.2191 7.25914 17.2191 8.91365C17.2191 10.5334 18.4236 11.8288 20.2857 11.8288H20.3221ZM25.6727 31H31.2221V21.5795C31.2221 21.0754 31.258 20.5712 31.405 20.2121C31.8055 19.2048 32.7186 18.1612 34.2519 18.1612C36.2605 18.1612 37.064 19.7084 37.064 21.9749V30.9995H42.6125V21.3277C42.6125 16.1461 39.8746 13.7351 36.2231 13.7351C33.2297 13.7351 31.9151 15.4259 31.1848 16.5777H31.2221V14.1315H25.6727C25.7459 15.7145 25.6727 31 25.6727 31ZM50.4415 6.50953H44.8921V31H50.4415V25.5308L51.8284 23.7666L56.1733 31H63L55.699 20.5286L62.0874 13.4049H55.4071C55.4071 13.4049 50.8435 19.778 50.4415 20.5345V6.50953Z" fill="black"/>
<path d="M78.0852 23.8325C78.1596 23.4148 78.2711 22.6135 78.2711 21.7073C78.2711 17.5022 76.0423 13.2329 70.1743 13.2329C63.8973 13.2329 61 17.9875 61 22.2998C61 27.6331 64.5287 30.9636 70.6937 30.9636C73.1455 30.9636 75.4104 30.6178 77.2682 29.8887L76.5253 26.3177C75.0019 26.8016 73.442 27.0439 71.5112 27.0439C68.8744 27.0439 66.5721 26.0069 66.3861 23.7975L78.0852 23.8316V23.8325ZM66.3491 20.1746C66.4976 18.7864 67.464 16.7382 69.8778 16.7382C72.4401 16.7382 73.035 18.9249 73.035 20.1746H66.3496H66.3491ZM92.2059 7.00047V15.1762H92.1315C91.314 14.0319 89.6057 13.2684 87.3413 13.2684C82.9952 13.2684 79.17 16.5993 79.2065 22.2899C79.2065 27.5646 82.6612 31 86.9689 31C89.3092 31 91.537 30.0276 92.6519 28.1538H92.7629L92.9864 30.6182H98C97.926 29.473 97.851 27.4952 97.851 25.5519V7H92.2055L92.2059 7.00047ZM92.2059 23.0884C92.2059 23.5041 92.169 23.9213 92.094 24.2672C91.761 25.7602 90.4236 26.8001 88.7892 26.8001C86.4499 26.8001 84.9265 24.9962 84.9265 22.151C84.9265 19.4796 86.2274 17.3279 88.8267 17.3279C90.5721 17.3279 91.7975 18.4727 92.132 19.8949C92.206 20.2081 92.2059 20.5554 92.2059 20.8672V23.0879V23.0884Z" fill="black"/>
<path d="M113.902 30.9995V14.1313H108.329V30.9995H113.903H113.902ZM111.116 11.8287C113.06 11.8287 114.27 10.5333 114.27 8.91458C114.233 7.25911 113.06 6 111.154 6C109.246 6 108 7.25911 108 8.91458C108 10.5333 109.209 11.8287 111.08 11.8287H111.116H111.116ZM116.987 30.9995H122.56V21.5807C122.56 21.077 122.597 20.5724 122.744 20.2128C123.147 19.205 124.064 18.162 125.604 18.162C127.62 18.162 128.427 19.7087 128.427 21.9765V30.9995H134V21.3279C134 16.1469 131.251 13.7359 127.584 13.7359C124.577 13.7359 123.257 15.4262 122.524 16.5775H122.561V14.1318H116.988C117.06 15.7143 116.987 31 116.987 31V30.9995Z" fill="white"/>
</svg>
