<svg width="18" height="21" viewBox="0 0 18 21" fill="none" xmlns="http://www.w3.org/2000/svg">
<path d="M15 2.4804C13.4087 0.8891 11.2504 -0.00488283 8.99999 -0.00488281C6.74955 -0.0048828 4.59129 0.8891 2.99999 2.4804C1.40869 4.0717 0.514709 6.22996 0.514709 8.4804C0.514709 10.7308 1.40869 12.8891 2.99999 14.4804L8.26999 19.7604C8.36295 19.8541 8.47356 19.9285 8.59541 19.9793C8.71727 20.0301 8.84798 20.0562 8.97999 20.0562C9.112 20.0562 9.24271 20.0301 9.36457 19.9793C9.48643 19.9285 9.59703 19.8541 9.68999 19.7604L15 14.4304C16.5846 12.8457 17.4749 10.6965 17.4749 8.4554C17.4749 6.21434 16.5846 4.06508 15 2.4804ZM13.57 13.0004L8.99999 17.5904L4.42999 13.0004C3.52713 12.0967 2.91247 10.9456 2.66369 9.69269C2.4149 8.43973 2.54318 7.14115 3.03229 5.96108C3.52141 4.78101 4.34941 3.77245 5.41162 3.06288C6.47383 2.3533 7.72258 1.97458 8.99999 1.97458C10.2774 1.97458 11.5261 2.3533 12.5884 3.06288C13.6506 3.77245 14.4786 4.78101 14.9677 5.96108C15.4568 7.14115 15.5851 8.43973 15.3363 9.69269C15.0875 10.9456 14.4728 12.0967 13.57 13.0004ZM5.99999 5.4104C5.19271 6.22017 4.73939 7.31697 4.73939 8.4604C4.73939 9.60383 5.19271 10.7006 5.99999 11.5104C6.59975 12.1112 7.36358 12.5215 8.19564 12.6898C9.0277 12.8581 9.89094 12.777 10.6771 12.4566C11.4632 12.1361 12.1372 11.5907 12.6145 10.8886C13.0918 10.1866 13.3511 9.35927 13.36 8.5104C13.3645 7.9436 13.2553 7.38166 13.0389 6.85779C12.8225 6.33392 12.5032 5.85875 12.1 5.4604C11.7037 5.05498 11.2311 4.73194 10.7094 4.50986C10.1878 4.28779 9.62733 4.17107 9.06039 4.16643C8.49345 4.16178 7.93119 4.2693 7.40596 4.48279C6.88073 4.69628 6.40291 5.01153 5.99999 5.4104ZM10.69 10.0904C10.311 10.4751 9.8102 10.7163 9.27312 10.7727C8.73603 10.829 8.19605 10.697 7.7455 10.3993C7.29494 10.1016 6.96179 9.65664 6.803 9.14048C6.64421 8.62432 6.66964 8.06904 6.87495 7.56955C7.08026 7.07007 7.45269 6.65741 7.92858 6.40213C8.40446 6.14686 8.95424 6.06481 9.48393 6.17002C10.0136 6.27522 10.4903 6.56116 10.8325 6.97893C11.1747 7.3967 11.3612 7.92037 11.36 8.4604C11.3454 9.07767 11.0865 9.66393 10.64 10.0904H10.69Z" fill="#A53DFF"/>
</svg>
